<svg id="Layer_1" data-name="Layer 1" xmlns="http://www.w3.org/2000/svg" viewBox="0 0 1186.38 1226.36"><defs><style>.cls-1{fill:#18bad1;}.cls-2{font-size:1057.09px;fill:#fe5931;font-family:BradleyHandITC, Bradley Hand ITC;}</style></defs><path class="cls-1" d="M2014.06,2880.59l-53.58-35.73-33.14,49.69,59.71,39.82-10,14.93-77.5-51.68,91.91-137.83,74.43,49.64-10,14.92-56.64-37.77-29,43.56,53.58,35.73Z" transform="translate(-1899.6 -1867.45)"/><path class="cls-1" d="M2223.37,2872.71l-55.15,132.8c-4,9.76-8.45,21-10.88,28.75l-17.93-7.45,7-19.45-.45-.18c-11.22,9.71-28.48,13.45-46.41,6-26.56-11-37.66-42-23.8-75.35,14.95-36.64,47-49.69,73.77-38.56,16.8,7,24.85,19.63,26.17,30.56l.45.19,27.25-65.6Zm-59.85,87.73a38.81,38.81,0,0,0,2.58-8.78c2.33-13.94-4.23-28.9-19.21-35.13-20.66-8.58-40.46,4.49-50.55,28.78-9.24,22.25-6,45.16,15.59,54.11,13.39,5.57,29.32,1.8,39.18-11.67a37.61,37.61,0,0,0,4.49-8.25Z" transform="translate(-1899.6 -1867.45)"/><path class="cls-1" d="M2362.58,3051.18c-2.31,12.07-4.09,22.74-5.12,32.05l-18.83-3.59,2.43-19.31-.48-.09a44.74,44.74,0,0,1-42.78,14.35c-18.35-3.51-38.38-17.84-30.54-58.88l13-68.33,21.25,4.06-12.36,64.7c-4.25,22.21-.35,38.47,19,42.16,14.24,2.72,26-5.28,31.69-14a31.59,31.59,0,0,0,4-10.5l13.7-71.7,21.24,4.06Z" transform="translate(-1899.6 -1867.45)"/><path class="cls-1" d="M2579.18,3085.22c-7.8,4.06-23.47,8.24-43.62,8.57-46.7.76-82.32-28.16-83.2-82.47-.85-51.86,33.73-87.58,85.09-88.41,20.65-.34,33.74,3.87,39.45,6.73l-4.88,17.53c-8.18-3.8-19.78-6.56-33.54-6.33-38.83.63-64.23,25.87-63.52,69.37.65,40.55,24.43,66.22,64.73,65.57,13-.21,26.26-3.13,34.79-7.45Z" transform="translate(-1899.6 -1867.45)"/><path class="cls-1" d="M2736.74,3064.44l-4.78-14.31-.73.15c-4.55,10.51-15.33,21.34-31.92,24.85-23.56,5-39.1-9.05-42.67-25.89-5.95-28.13,15.8-48.82,60.81-58.1l-.51-2.4c-2-9.62-8.34-26.38-32.15-21.33a59.31,59.31,0,0,0-28.47,15.07l-7.76-12.93c8.3-8.29,21.38-15.33,36.05-18.44,35.58-7.53,49.38,14.92,54.32,38.25l9.22,43.52c2.14,10.1,4.71,19.86,7.83,27.49Zm-15.7-58.73c-23.19,4.41-48.53,14-43.74,36.65,2.9,13.7,13.41,18.26,24.23,16,15.15-3.21,22.73-14.86,24-25.44a22.57,22.57,0,0,0-.22-7Z" transform="translate(-1899.6 -1867.45)"/><path class="cls-1" d="M2822.67,2956.4c-6-14-11.29-25.11-16.2-35.31l17.85-7.65,8.94,18.36.45-.19c2.42-16.82,11.91-30.24,29.76-37.89,26.43-11.33,55.9,2.51,70.13,35.72,16.85,39.31,1.23,69-24.53,80-14.45,6.19-29.82,5.29-41-2.75l-.45.2,25.47,59.41-19.66,8.43Zm32.15,20.72a48.74,48.74,0,0,0,4.39,7.74,33.37,33.37,0,0,0,39.79,10.49c21-9,25.85-31.4,15.11-56.48-9.4-21.91-29-35.73-50-26.72-13.55,5.81-22,20.94-19.49,37.5a35.19,35.19,0,0,0,2.13,8.71Z" transform="translate(-1899.6 -1867.45)"/><path class="cls-1" d="M3025.9,2920.83c7.64-.08,19.5-2.68,28.49-8.68,13.08-8.74,14.85-19.38,9.39-27.55-5.74-8.59-14-9.88-30.55-5.91-22,5.54-36.95,1.33-44.86-10.53-10.65-15.94-6.51-37.62,14.74-51.82,10-6.69,20.72-9.7,28.42-10.11l4.24,16.08a46.33,46.33,0,0,0-24.06,7.79c-10.62,7.1-12.46,17.19-7.54,24.55,5.46,8.18,13.84,7.9,30,4.2,21.54-4.92,36.06-2.21,45.89,12.51,11.6,17.37,6.3,38.65-17.2,54.35-10.84,7.23-22.63,11.26-32.31,11.82Z" transform="translate(-1899.6 -1867.45)"/><text class="cls-2" transform="translate(283.74 796.43)">E</text></svg>